<svg width="347.568798828125px" height="140.01999511718748px" xmlns="http://www.w3.org/2000/svg" viewBox="76.2156005859375 4.990002441406261 347.568798828125 140.01999511718748" style="background: rgb(255, 255, 255);" preserveAspectRatio="xMidYMid"><defs><filter id="editing-extrusion" x="-100%" y="-100%" width="300%" height="300%"><feFlood result="color1" flood-color="#ffffff"></feFlood><feConvolveMatrix order="16,16" divisor="1" kernelMatrix="1 0 0 0 0 0 0 0 0 0 0 0 0 0 0 0 0 1 0 0 0 0 0 0 0 0 0 0 0 0 0 0 0 0 1 0 0 0 0 0 0 0 0 0 0 0 0 0 0 0 0 1 0 0 0 0 0 0 0 0 0 0 0 0 0 0 0 0 1 0 0 0 0 0 0 0 0 0 0 0 0 0 0 0 0 1 0 0 0 0 0 0 0 0 0 0 0 0 0 0 0 0 1 0 0 0 0 0 0 0 0 0 0 0 0 0 0 0 0 1 0 0 0 0 0 0 0 0 0 0 0 0 0 0 0 0 1 0 0 0 0 0 0 0 0 0 0 0 0 0 0 0 0 1 0 0 0 0 0 0 0 0 0 0 0 0 0 0 0 0 1 0 0 0 0 0 0 0 0 0 0 0 0 0 0 0 0 1 0 0 0 0 0 0 0 0 0 0 0 0 0 0 0 0 1 0 0 0 0 0 0 0 0 0 0 0 0 0 0 0 0 1 0 0 0 0 0 0 0 0 0 0 0 0 0 0 0 0 1 0 0 0 0 0 0 0 0 0 0 0 0 0 0 0 0 1" in="SourceAlpha" result="extrude"></feConvolveMatrix><feComposite in="color1" in2="extrude" result="comp-extrude" operator="in"></feComposite><feOffset dx="8" dy="8" in="comp-extrude" result="offset-extrude"></feOffset><feMerge><feMergeNode in="offset-extrude"></feMergeNode><feMergeNode in="SourceGraphic"></feMergeNode></feMerge></filter></defs><g filter="url(#editing-extrusion)"><g transform="translate(130.68031430244446, 103.1200008392334)"><path d="M25.08-21.36L25.08-21.36L25.08-21.36Q27.82-26.22 27.82-31.16L27.82-31.16L27.82-31.16Q27.82-34.43 25.46-34.43L25.46-34.43L25.46-34.43Q23.64-34.43 21.74-31.31L21.74-31.31L21.74-31.31Q19.76-28.20 19.15-24.17L19.15-24.17L15.20 0L-0.53 1.52L7.22-38.76L19.76-40.28L18.39-32.60L18.39-32.60Q22.12-40.28 30.48-40.28L30.48-40.28L30.48-40.28Q34.88-40.28 37.28-38L37.28-38L37.28-38Q39.67-35.72 39.67-31.05L39.67-31.05L39.67-31.05Q39.67-26.37 36.59-23.41L36.59-23.41L36.59-23.41Q33.52-20.44 28.27-20.44L28.27-20.44L28.27-20.44Q25.99-20.44 25.08-21.36ZM57.46 1.52L57.46 1.52L57.46 1.52Q40.74 1.52 40.74-14.21L40.74-14.21L40.74-14.21Q40.74-25.38 46.89-32.60L46.89-32.60L46.89-32.60Q53.43-40.28 64.75-40.28L64.75-40.28L64.75-40.28Q72.96-40.28 77.14-36.48L77.14-36.48L77.14-36.48Q81.32-32.68 81.32-24.70L81.32-24.70L81.32-24.70Q81.32-12.54 74.78-5.47L74.78-5.47L74.78-5.47Q68.40 1.52 57.46 1.52ZM59.43-31.54L59.43-31.54L59.43-31.54Q58.52-29.49 57.80-26.41L57.80-26.41L57.80-26.41Q57.08-23.33 56.16-18.47L56.16-18.47L56.16-18.47Q55.25-13.60 55.25-7.60L55.25-7.60L55.25-7.60Q55.25-5.62 55.90-4.33L55.90-4.33L55.90-4.33Q56.54-3.04 58.29-3.04L58.29-3.04L58.29-3.04Q60.04-3.04 61.14-3.88L61.14-3.88L61.14-3.88Q62.24-4.71 63.08-6.69L63.08-6.69L63.08-6.69Q64.60-10.18 65.82-16.68L65.82-16.68L65.82-16.68Q67.03-23.18 67.15-25.99L67.15-25.99L67.15-25.99Q67.26-28.80 67.26-30.89L67.26-30.89L67.26-30.89Q67.26-32.98 66.65-34.35L66.65-34.35L66.65-34.35Q66.04-35.72 64.33-35.72L64.33-35.72L64.33-35.72Q62.62-35.72 61.48-34.66L61.48-34.66L61.48-34.66Q60.34-33.59 59.43-31.54ZM84.82-3.65L84.82-3.65L94.24-53.20L109.67-54.72L107.31-43.09L107.31-43.09Q106.48-39.52 105.41-37.01L105.41-37.01L105.41-37.01Q107.08-39.14 110.73-39.98L110.73-39.98L110.73-39.98Q111.80-40.28 113.09-40.28L113.09-40.28L113.09-40.28Q120.16-40.28 124.03-35.99L124.03-35.99L124.03-35.99Q127.91-31.69 127.91-23.41L127.91-23.41L127.91-23.41Q127.91-12.62 121.75-5.85L121.75-5.85L121.75-5.85Q115.14 1.52 103.13 1.52L103.13 1.52L103.13 1.52Q94.85 1.52 88.62-1.22L88.62-1.22L88.62-1.22Q86.41-2.20 84.82-3.65ZM104.12-26.60L100.09-4.33L100.09-4.33Q101.69-2.96 103.66-2.96L103.66-2.96L103.66-2.96Q105.64-2.96 106.78-3.72L106.78-3.72L106.78-3.72Q107.92-4.48 108.76-6.00L108.76-6.00L108.76-6.00Q111.04-10.11 112.86-22.65L112.86-22.65L112.86-22.65Q113.39-26.22 113.39-29.79L113.39-29.79L113.39-29.79Q113.39-33.36 112.59-34.50L112.59-34.50L112.59-34.50Q111.80-35.64 110.28-35.64L110.28-35.64L110.28-35.64Q105.64-35.64 104.12-26.60L104.12-26.60ZM163.25-12.84L163.25-12.84L163.25-12.84Q165.15-11.55 165.15-8.70L165.15-8.70L165.15-8.70Q165.15-5.85 163.70-4.03L163.70-4.03L163.70-4.03Q162.26-2.20 159.90-0.99L159.90-0.99L159.90-0.99Q155.04 1.52 149.80 1.52L149.80 1.52L149.80 1.52Q144.55 1.52 141.47 0.38L141.47 0.38L141.47 0.38Q138.40-0.76 136.34-2.89L136.34-2.89L136.34-2.89Q132.32-6.92 132.32-14.29L132.32-14.29L132.32-14.29Q132.32-25.76 138.55-32.76L138.55-32.76L138.55-32.76Q145.24-40.28 156.86-40.28L156.86-40.28L156.86-40.28Q164.08-40.28 167.66-37.24L167.66-37.24L167.66-37.24Q170.32-34.96 170.32-31.24L170.32-31.24L170.32-31.24Q170.32-17.86 147.21-17.86L147.21-17.86L147.21-17.86Q146.91-15.88 146.91-14.21L146.91-14.21L146.91-14.21Q146.91-10.72 148.47-9.39L148.47-9.39L148.47-9.39Q150.02-8.06 152.91-8.06L152.91-8.06L152.91-8.06Q155.80-8.06 158.88-9.39L158.88-9.39L158.88-9.39Q161.96-10.72 163.25-12.84ZM147.74-21.13L147.74-21.13L147.74-21.13Q153.14-21.13 156.26-24.47L156.26-24.47L156.26-24.47Q159.37-27.66 159.37-32.76L159.37-32.76L159.37-32.76Q159.37-34.50 158.73-35.45L158.73-35.45L158.73-35.45Q158.08-36.40 156.79-36.40L156.79-36.40L156.79-36.40Q155.50-36.40 154.39-35.91L154.39-35.91L154.39-35.91Q153.29-35.42 152.15-33.74L152.15-33.74L152.15-33.74Q149.34-29.94 147.74-21.13ZM196.69-21.36L196.69-21.36L196.69-21.36Q199.42-26.22 199.42-31.16L199.42-31.16L199.42-31.16Q199.42-34.43 197.07-34.43L197.07-34.43L197.07-34.43Q195.24-34.43 193.34-31.31L193.34-31.31L193.34-31.31Q191.37-28.20 190.76-24.17L190.76-24.17L186.81 0L171.08 1.52L178.83-38.76L191.37-40.28L190-32.60L190-32.60Q193.72-40.28 202.08-40.28L202.08-40.28L202.08-40.28Q206.49-40.28 208.89-38L208.89-38L208.89-38Q211.28-35.72 211.28-31.05L211.28-31.05L211.28-31.05Q211.28-26.37 208.20-23.41L208.20-23.41L208.20-23.41Q205.12-20.44 199.88-20.44L199.88-20.44L199.88-20.44Q197.60-20.44 196.69-21.36ZM213.71-7.60L213.71-7.60L213.71-7.60Q213.71-9.65 214.78-14.82L214.78-14.82L218.80-35.34L214.32-35.34L214.62-37.62L214.62-37.62Q223.74-40.36 232.56-47.04L232.56-47.04L236.21-47.04L234.38-38.76L240.31-38.76L239.63-35.34L233.78-35.34L229.90-14.82L229.90-14.82Q228.91-10.11 228.91-8.51L228.91-8.51L228.91-8.51Q228.91-4.86 232.10-4.10L232.10-4.10L232.10-4.10Q231.34-1.52 228.61 0L228.61 0L228.61 0Q225.87 1.52 222.00 1.52L222.00 1.52L222.00 1.52Q218.12 1.52 215.92-0.91L215.92-0.91L215.92-0.91Q213.71-3.34 213.71-7.60Z" fill="#0a0a0a"></path></g></g><style>text {
  font-size: 64px;
  font-family: Arial Black;
  dominant-baseline: central;
  text-anchor: middle;
}</style></svg>